<?xml version="1.0" encoding="UTF-8"?>
<svg width="140px" height="140px" viewBox="0 0 140 140" version="1.1" xmlns="http://www.w3.org/2000/svg" xmlns:xlink="http://www.w3.org/1999/xlink">
    <title>streamline-icon-information-circle@140x140 copy</title>
    <g id="Page-1" stroke="none" stroke-width="1" fill="none" fill-rule="evenodd" stroke-linecap="round" stroke-linejoin="round">
        <g id="Artboard" transform="translate(-632.000000, -1226.000000)" stroke="#3581B8" stroke-width="8.75">
            <g id="streamline-icon-information-circle@140x140-copy" transform="translate(636.000000, 1230.000000)">
                <path d="M79.125,92.25 L74.75,92.25 C69.9175084,92.25 66,88.3324916 66,83.5 L66,61.625 C66,59.2087542 64.0412458,57.25 61.625,57.25 L57.25,57.25" id="Path"></path>
                <path d="M63.8125,35.375 C62.6043771,35.375 61.625,36.3543771 61.625,37.5625 C61.625,38.7706229 62.6043771,39.75 63.8125,39.75 C65.0206229,39.75 66,38.7706229 66,37.5625 C66,36.3543771 65.0206229,35.375 63.8125,35.375 L63.8125,35.375" id="Path"></path>
                <path d="M0.375,66 C0.375,102.243687 29.7563133,131.625 66,131.625 C102.243687,131.625 131.625,102.243687 131.625,66 C131.625,29.7563133 102.243687,0.375 66,0.375 C29.7563133,0.375 0.375,29.7563133 0.375,66 Z" id="Path"></path>
            </g>
        </g>
    </g>
</svg>