<?xml version="1.0" encoding="UTF-8"?>
<svg width="200px" height="200px" viewBox="0 0 200 200" version="1.1" xmlns="http://www.w3.org/2000/svg" xmlns:xlink="http://www.w3.org/1999/xlink">
    <title>logoicon_swim_green</title>
    <g id="Page-1" stroke="none" stroke-width="1" fill="none" fill-rule="evenodd">
        <g id="Artboard" transform="translate(-2078.000000, -345.000000)">
            <g id="logoicon_swim_green" transform="translate(2078.000000, 345.000000)">
                <circle id="Oval-Copy" fill="#4FB287" cx="100" cy="100" r="100"></circle>
                <g id="streamline-icon-fish@140x140-copy" transform="translate(34.000000, 43.000000)" stroke="#FFFFFF" stroke-linecap="round" stroke-linejoin="round" stroke-width="8.75">
                    <path d="M26.625,113.828333 L61.625,113.828333 C82.2983333,113.828333 95.3358333,93.995 102.545833,77.755 C105.937402,70.3521298 113.361672,65.6325784 121.504167,65.7033333 C124.935333,66.2058219 128.343547,64.6565176 130.220905,61.7408831 C132.098262,58.8252487 132.098262,55.081418 130.220905,52.1657835 C128.343547,49.2501491 124.935333,47.7008448 121.504167,48.2033333 C113.36346,48.2736334 105.940299,43.5570714 102.545833,36.1575 C95.3358333,19.9175 82.2983333,0.0783333333 61.625,0.0783333333 L26.625,0.0783333333" id="Path"></path>
                    <path d="M39.75,113.828333 C39.75,113.828333 44.125,83.2033333 26.625,70.0783333 C18.7966667,64.21 4.75,78.8283333 4.75,78.8283333 C4.75,78.8283333 0.375,74.4533333 0.375,56.9533333 C0.375,39.4533333 4.75,35.0783333 4.75,35.0783333 C4.75,35.0783333 18.7966667,49.7025 26.625,43.8283333 C44.125,30.7033333 39.75,0.0783333333 39.75,0.0783333333" id="Path"></path>
                    <path d="M87.875,46.0158333 C89.0831229,46.0158333 90.0625,46.9952104 90.0625,48.2033333" id="Path"></path>
                    <path d="M85.6875,48.2033333 C85.6875,46.9952104 86.6668771,46.0158333 87.875,46.0158333" id="Path"></path>
                    <path d="M87.875,50.3908333 C86.6668771,50.3908333 85.6875,49.4114562 85.6875,48.2033333" id="Path"></path>
                    <path d="M90.0625,48.2033333 C90.0625,49.4114562 89.0831229,50.3908333 87.875,50.3908333" id="Path"></path>
                </g>
            </g>
        </g>
    </g>
</svg>