<?xml version="1.0" encoding="UTF-8"?>
<svg width="200px" height="200px" viewBox="0 0 200 200" version="1.1" xmlns="http://www.w3.org/2000/svg" xmlns:xlink="http://www.w3.org/1999/xlink">
    <title>logoicon_golf_green</title>
    <g id="Page-1" stroke="none" stroke-width="1" fill="none" fill-rule="evenodd">
        <g id="Artboard" transform="translate(-2078.000000, -908.000000)">
            <g id="logoicon_golf_green" transform="translate(2078.000000, 908.000000)">
                <circle id="Oval-Copy" fill="#4FB287" cx="100" cy="100" r="100"></circle>
                <g id="streamline-icon-golf-ball@140x140-copy" transform="translate(51.000000, 34.000000)" stroke="#FFFFFF" stroke-linecap="round" stroke-linejoin="round" stroke-width="8.75">
                    <path d="M0.875,48.5 C0.875,75.0787036 22.4212964,96.625 49,96.625 C75.5787036,96.625 97.125,75.0787036 97.125,48.5 C97.125,21.9212964 75.5787036,0.375 49,0.375 C22.4212964,0.375 0.875,21.9212964 0.875,48.5 Z" id="Path"></path>
                    <path d="M14,104.015833 C35.386711,117.494882 62.613289,117.494882 84,104.015833" id="Path"></path>
                    <line x1="49" y1="114.125" x2="49" y2="131.625" id="Path"></line>
                    <path d="M49,76.9375 C50.2081229,76.9375 51.1875,77.9168771 51.1875,79.125" id="Path"></path>
                    <path d="M46.8125,79.125 C46.8125,77.9168771 47.7918771,76.9375 49,76.9375" id="Path"></path>
                    <path d="M49,81.3125 C47.7918771,81.3125 46.8125,80.3331229 46.8125,79.125" id="Path"></path>
                    <path d="M51.1875,79.125 C51.1875,80.3331229 50.2081229,81.3125 49,81.3125" id="Path"></path>
                    <path d="M79.625,55.0625 C80.8331229,55.0625 81.8125,56.0418771 81.8125,57.25" id="Path"></path>
                    <path d="M77.4375,57.25 C77.4375,56.0418771 78.4168771,55.0625 79.625,55.0625" id="Path"></path>
                    <path d="M79.625,59.4375 C78.4168771,59.4375 77.4375,58.4581229 77.4375,57.25" id="Path"></path>
                    <path d="M81.8125,57.25 C81.8125,58.4581229 80.8331229,59.4375 79.625,59.4375" id="Path"></path>
                    <path d="M70.875,72.5625 C72.0831229,72.5625 73.0625,73.5418771 73.0625,74.75" id="Path"></path>
                    <path d="M68.6875,74.75 C68.6875,73.5418771 69.6668771,72.5625 70.875,72.5625" id="Path"></path>
                    <path d="M70.875,76.9375 C69.6668771,76.9375 68.6875,75.9581229 68.6875,74.75" id="Path"></path>
                    <path d="M73.0625,74.75 C73.0625,75.9581229 72.0831229,76.9375 70.875,76.9375" id="Path"></path>
                    <path d="M57.75,59.4375 C58.9581229,59.4375 59.9375,60.4168771 59.9375,61.625" id="Path"></path>
                    <path d="M55.5625,61.625 C55.5625,60.4168771 56.5418771,59.4375 57.75,59.4375" id="Path"></path>
                    <path d="M57.75,63.8125 C56.5418771,63.8125 55.5625,62.8331229 55.5625,61.625" id="Path"></path>
                    <path d="M59.9375,61.625 C59.9375,62.8331229 58.9581229,63.8125 57.75,63.8125" id="Path"></path>
                </g>
            </g>
        </g>
    </g>
</svg>