<?xml version="1.0" encoding="UTF-8"?>
<svg width="200px" height="200px" viewBox="0 0 200 200" version="1.1" xmlns="http://www.w3.org/2000/svg" xmlns:xlink="http://www.w3.org/1999/xlink">
    <title>logoicon_bowling_green</title>
    <g id="Page-1" stroke="none" stroke-width="1" fill="none" fill-rule="evenodd">
        <g id="Artboard" transform="translate(-2078.000000, -1162.000000)">
            <g id="logoicon_bowling_green" transform="translate(2078.000000, 1162.000000)">
                <circle id="Oval-Copy" fill="#4FB287" cx="100" cy="100" r="100"></circle>
                <g id="streamline-icon-bowling-pins@140x140" transform="translate(34.000000, 34.000000)" stroke="#FFFFFF" stroke-linecap="round" stroke-linejoin="round" stroke-width="8.75">
                    <path d="M79.125,44.125 L79.125,13.5 C79.125,6.25126266 73.2487373,0.375 66,0.375 C58.7512627,0.375 52.875,6.25126266 52.875,13.5 L52.875,44.125 C41.9323561,56.1055811 35.7134862,71.6527558 35.375,87.875 C35.6470775,102.6034 40.7941577,116.826082 50.0108333,128.3175 C51.6713582,130.407885 54.1953458,131.625 56.865,131.625 L75.135,131.625 C77.8046542,131.625 80.3286418,130.407885 81.9891667,128.3175 C91.2058423,116.826082 96.3529225,102.6034 96.625,87.875 C96.2865138,71.6527558 90.0676439,56.1055811 79.125,44.125 L79.125,44.125 Z" id="Path"></path>
                    <polygon id="Path" points="52.875 26.625 79.125 26.625 79.125 44.125 52.875 44.125"></polygon>
                    <path d="M26.625,9.125 C21.7925084,9.125 17.875,13.0425084 17.875,17.875 L17.875,35.375 L35.375,35.375 L35.375,17.875 C35.375,13.0425084 31.4574916,9.125 26.625,9.125 Z" id="Path"></path>
                    <path d="M26.625,122.875 L17.875,122.875 C17.875,122.875 0.375,114.125 0.375,83.5 C0.0628142891,65.8472774 6.29675851,48.7039308 17.875,35.375 L35.375,35.375" id="Path"></path>
                    <path d="M105.375,9.125 C110.207492,9.125 114.125,13.0425084 114.125,17.875 L114.125,35.375 L96.625,35.375 L96.625,17.875 C96.625,13.0425084 100.542508,9.125 105.375,9.125 Z" id="Path"></path>
                    <path d="M105.375,122.875 L114.125,122.875 C114.125,122.875 131.625,114.125 131.625,83.5 C131.937186,65.8472774 125.703241,48.7039308 114.125,35.375 L96.625,35.375" id="Path"></path>
                </g>
            </g>
        </g>
    </g>
</svg>