<?xml version="1.0" encoding="UTF-8"?>
<svg width="200px" height="200px" viewBox="0 0 200 200" version="1.1" xmlns="http://www.w3.org/2000/svg" xmlns:xlink="http://www.w3.org/1999/xlink">
    <title>logoicon_birthday_green</title>
    <g id="Page-1" stroke="none" stroke-width="1" fill="none" fill-rule="evenodd">
        <g id="Artboard" transform="translate(-2078.000000, -1506.000000)">
            <g id="logoicon_birthday_green" transform="translate(2078.000000, 1506.000000)">
                <circle id="Oval-Copy" fill="#4FB287" cx="100" cy="100" r="100"></circle>
                <g id="streamline-icon-cake-birthday@140x140-copy" transform="translate(45.000000, 40.000000)" stroke="#FFFFFF" stroke-linecap="round" stroke-linejoin="round" stroke-width="7.76209677">
                    <line x1="0.525604839" y1="116.764113" x2="109.19496" y2="116.764113" id="Path"></line>
                    <polygon id="Path" points="8.28770161 46.9052419 101.432863 46.9052419 101.432863 101.239919 8.28770161 101.239919"></polygon>
                    <line x1="54.8602823" y1="35.2620968" x2="54.8602823" y2="46.9052419" id="Path"></line>
                    <path d="M62.622379,11.9758065 C62.622379,16.262694 59.1471698,19.737903 54.8602823,19.737903 C50.5733947,19.737903 47.0981855,16.262694 47.0981855,11.9758065 C47.0981855,7.69112903 54.8602823,0.33266129 54.8602823,0.33266129 C54.8602823,0.33266129 62.622379,7.69112903 62.622379,11.9758065 Z" id="Path"></path>
                    <line x1="85.9086694" y1="35.2620968" x2="85.9086694" y2="46.9052419" id="Path"></line>
                    <path d="M93.6707661,11.9758065 C93.6707661,16.2626941 90.195557,19.7379032 85.9086694,19.7379032 C81.6217817,19.7379032 78.1465726,16.2626941 78.1465726,11.9758065 C78.1465726,7.69112903 85.9086694,0.33266129 85.9086694,0.33266129 C85.9086694,0.33266129 93.6707661,7.69112903 93.6707661,11.9758065 Z" id="Path"></path>
                    <line x1="23.8118952" y1="35.2620968" x2="23.8118952" y2="46.9052419" id="Path"></line>
                    <path d="M31.5739919,11.9758065 C31.5739919,16.2626941 28.0987828,19.7379031 23.8118952,19.7379031 C19.5250076,19.7379031 16.0497984,16.2626941 16.0497984,11.9758065 C16.0497984,7.69112903 23.8118952,0.33266129 23.8118952,0.33266129 C23.8118952,0.33266129 31.5739919,7.69112903 31.5739919,11.9758065 Z" id="Path"></path>
                    <path d="M8.28769113,64.3699597 C8.28086002,69.8929697 11.622462,74.8689568 16.7374157,76.9524479 C21.8523694,79.035939 27.7197789,77.8110893 31.5739919,73.8552419 C34.5137136,76.8824389 38.6993364,78.3617142 42.8883771,77.8539517 C47.0774179,77.3461892 50.7884084,74.9097487 52.9197581,71.2678763 C55.3357329,75.4085035 59.7689772,77.954504 64.5629032,77.954504 C69.3568293,77.954504 73.7900736,75.4085035 76.2060484,71.2678763 C79.306275,76.5424817 85.5570503,79.0845728 91.4586444,77.4708651 C97.3602386,75.8571574 101.447844,70.4881818 101.432904,64.3699597" id="Path"></path>
                </g>
            </g>
        </g>
    </g>
</svg>