<?xml version="1.0" encoding="UTF-8"?>
<svg width="83px" height="50px" viewBox="0 0 83 50" version="1.1" xmlns="http://www.w3.org/2000/svg" xmlns:xlink="http://www.w3.org/1999/xlink">
    <title>logo1_v3</title>
    <g id="Page-1" stroke="none" stroke-width="1" fill="none" fill-rule="evenodd">
        <g id="Artboard" transform="translate(-60.000000, -296.000000)">
            <g id="Group-Copy-14" transform="translate(60.000000, 296.000000)">
                <circle id="Oval-Copy-6" fill="#3581B8" cx="65.5" cy="28.5" r="3.5"></circle>
                <circle id="Oval-Copy-5" fill="#F2BB03" cx="62" cy="23" r="6"></circle>
                <circle id="Oval-Copy-4" fill="#4FB287" cx="56.5" cy="17.5" r="7.5"></circle>
                <circle id="Oval-Copy-3" fill="#3581B8" cx="46.5" cy="13.5" r="10.5"></circle>
                <circle id="Oval-Copy-2" fill="#F2BB03" cx="34" cy="13" r="13"></circle>
                <circle id="Oval-Copy" fill="#4FB287" cx="21" cy="21" r="14"></circle>
                <circle id="Oval" fill="#3581B8" cx="14.5" cy="35.5" r="14.5"></circle>
                <path d="M9.93173828,40.4545898 L9.93173828,36.0883789 C9.93173828,34.9982096 10.0783854,34.2151693 10.3716797,33.7392578 C10.664974,33.2633464 11.1353516,33.0253906 11.7828125,33.0253906 C12.2642578,33.0253906 12.617041,33.1927897 12.8411621,33.5275879 C13.0652832,33.8623861 13.1773437,34.3645833 13.1773437,35.0341797 L13.1773437,35.0341797 L13.1773437,40.4545898 L15.709082,40.4545898 L15.709082,35.7978516 C15.709082,34.8349609 15.8626465,34.1321615 16.1697754,33.6894531 C16.4769043,33.2467448 16.9403646,33.0253906 17.5601562,33.0253906 C18.0416016,33.0253906 18.3943848,33.1927897 18.6185059,33.5275879 C18.842627,33.8623861 18.9546875,34.3645833 18.9546875,35.0341797 L18.9546875,35.0341797 L18.9546875,40.4545898 L21.4947266,40.4545898 L21.4947266,34.4033203 C21.4947266,33.2135417 21.2249512,32.348877 20.6854004,31.8093262 C20.1458496,31.2697754 19.3503581,31 18.2989258,31 C17.6902018,31 17.1437337,31.1189779 16.6595215,31.3569336 C16.1753092,31.5948893 15.8086914,31.9296875 15.559668,32.3613281 L15.559668,32.3613281 L15.3355469,32.3613281 C14.8430339,31.453776 13.9022786,31 12.5132812,31 C11.9045573,31 11.3650065,31.1203613 10.8946289,31.361084 C10.4242513,31.6018066 10.0645508,31.9352214 9.81552734,32.3613281 L9.81552734,32.3613281 L9.67441406,32.3613281 L9.33408203,31.1743164 L7.4,31.1743164 L7.4,40.4545898 L9.93173828,40.4545898 Z" id="m" fill="#FFFFFF" fill-rule="nonzero"></path>
                <path d="M35.2285156,40.5179687 C35.6777344,40.5179687 36.078125,40.4349609 36.4296875,40.2689453 C36.78125,40.1029297 37.0527344,39.8675781 37.2441406,39.5628906 L37.2441406,39.5628906 L37.3378906,39.5628906 L37.578125,40.4007812 L38.9492188,40.4007812 L38.9492188,33.85 L37.1621094,33.85 L37.1621094,36.9320312 C37.1621094,37.7054687 37.0507812,38.2591797 36.828125,38.5931641 C36.6054688,38.9271484 36.2441406,39.0941406 35.7441406,39.0941406 C35.3769531,39.0941406 35.109375,38.9759766 34.9414062,38.7396484 C34.7734375,38.5033203 34.6894531,38.1488281 34.6894531,37.6761719 L34.6894531,37.6761719 L34.6894531,33.85 L32.9023438,33.85 L32.9023438,38.1214844 C32.9023438,38.8949219 33.0976562,39.4876953 33.4882812,39.8998047 C33.8789062,40.3119141 34.4589844,40.5179687 35.2285156,40.5179687 Z" id="u" fill="#463F3A" fill-rule="nonzero"></path>
                <path d="M44.7246094,40.4038281 L44.7246094,37.3217969 C44.7246094,36.5483594 44.8359375,35.9946484 45.0585938,35.6606641 C45.28125,35.3266797 45.6425781,35.1596875 46.1425781,35.1596875 C46.5097656,35.1596875 46.7773438,35.2778516 46.9453125,35.5141797 C47.1132812,35.7505078 47.1972656,36.105 47.1972656,36.5776563 L47.1972656,36.5776563 L47.1972656,40.4038281 L48.984375,40.4038281 L48.984375,36.1323438 C48.984375,35.355 48.7871094,34.7602734 48.3925781,34.3481641 C47.9980469,33.9360547 47.4199219,33.73 46.6582031,33.73 C46.2128906,33.73 45.8154297,33.8110547 45.4658203,33.9731641 C45.1162109,34.1352734 44.8417969,34.3745313 44.6425781,34.6909375 L44.6425781,34.6909375 L44.5429688,34.6909375 L44.3027344,33.8530469 L42.9375,33.8530469 L42.9375,40.4038281 L44.7246094,40.4038281 Z" id="n" fill="#463F3A" fill-rule="nonzero"></path>
                <path d="M56.0117188,40.514375 C56.84375,40.514375 57.4628906,40.1921094 57.8691406,39.5475781 L57.8691406,39.5475781 L57.9453125,39.5475781 L58.2910156,40.3971875 L59.6621094,40.3971875 L59.6621094,31.28 L57.8691406,31.28 L57.8691406,33.3776562 C57.8691406,33.7604687 57.9140625,34.1960156 58.0039062,34.6842969 L58.0039062,34.6842969 L57.9453125,34.6842969 C57.5117188,34.0436719 56.8828125,33.7233594 56.0585938,33.7233594 C55.2734375,33.7233594 54.6572266,34.0231641 54.2099609,34.6227734 C53.7626953,35.2223828 53.5390625,36.0592969 53.5390625,37.1335156 C53.5390625,38.1921094 53.7587891,39.0202344 54.1982422,39.6178906 C54.6376953,40.2155469 55.2421875,40.514375 56.0117188,40.514375 Z M56.6386719,39.0905469 C56.2246094,39.0905469 55.90625,38.9294141 55.6835938,38.6071484 C55.4609375,38.2848828 55.3496094,37.8014844 55.3496094,37.1569531 C55.3496094,36.5124219 55.4599609,36.0212109 55.6806641,35.6833203 C55.9013672,35.3454297 56.2109375,35.1764844 56.609375,35.1764844 C57.0976562,35.1764844 57.4501953,35.3288281 57.6669922,35.6335156 C57.8837891,35.9382031 57.9921875,36.4421094 57.9921875,37.1452344 L57.9921875,37.1452344 L57.9921875,37.3385937 C57.9726562,37.9753125 57.8564453,38.4264844 57.6435547,38.6921094 C57.4306641,38.9577344 57.0957031,39.0905469 56.6386719,39.0905469 Z" id="d" fill="#463F3A" fill-rule="nonzero"></path>
                <polygon id="i" fill="#463F3A" fill-rule="nonzero" points="66.7246094 40.4007812 66.7246094 33.85 64.9375 33.85 64.9375 40.4007812"></polygon>
                <path d="M72.53125,40.5127344 C73.0429688,40.5127344 73.4580078,40.4394922 73.7763672,40.2930078 C74.0947266,40.1465234 74.4042969,39.8838281 74.7050781,39.5049219 L74.7050781,39.5049219 L74.7519531,39.5049219 L75.0976562,40.3955469 L76.3457031,40.3955469 L76.3457031,36.0303125 C76.3457031,35.2490625 76.1113281,34.6670313 75.6425781,34.2842188 C75.1738281,33.9014063 74.5,33.71 73.6210938,33.71 C72.703125,33.71 71.8671875,33.9072656 71.1132812,34.3017969 L71.1132812,34.3017969 L71.7050781,35.5088281 C72.4121094,35.1924219 73.0273438,35.0342188 73.5507812,35.0342188 C74.2304688,35.0342188 74.5703125,35.36625 74.5703125,36.0303125 L74.5703125,36.0303125 L74.5703125,36.3174219 L73.4335938,36.3525781 C72.453125,36.3877344 71.7197266,36.5703516 71.2333984,36.9004297 C70.7470703,37.2305078 70.5039062,37.7432031 70.5039062,38.4385156 C70.5039062,39.1025781 70.6845703,39.6142969 71.0458984,39.9736719 C71.4072266,40.3330469 71.9023438,40.5127344 72.53125,40.5127344 Z M73.2050781,39.2060938 C72.6269531,39.2060938 72.3378906,38.9541406 72.3378906,38.4502344 C72.3378906,38.0986719 72.4648438,37.8369531 72.71875,37.6650781 C72.9726562,37.4932031 73.359375,37.3994531 73.8789062,37.3838281 L73.8789062,37.3838281 L74.5703125,37.3603906 L74.5703125,37.8994531 C74.5703125,38.2939844 74.4462891,38.6103906 74.1982422,38.8486719 C73.9501953,39.0869531 73.6191406,39.2060938 73.2050781,39.2060938 Z" id="a" fill="#463F3A" fill-rule="nonzero"></path>
                <polygon id="l" fill="#463F3A" fill-rule="nonzero" points="82.7246094 40.3971875 82.7246094 31.28 80.9375 31.28 80.9375 40.3971875"></polygon>
            </g>
        </g>
    </g>
</svg>