<?xml version="1.0" encoding="UTF-8"?>
<svg width="200px" height="200px" viewBox="0 0 200 200" version="1.1" xmlns="http://www.w3.org/2000/svg" xmlns:xlink="http://www.w3.org/1999/xlink">
    <title>logoicon_restaurant_green</title>
    <g id="Page-1" stroke="none" stroke-width="1" fill="none" fill-rule="evenodd">
        <g id="Artboard" transform="translate(-2078.000000, -1817.000000)">
            <g id="logoicon_restaurant_green" transform="translate(2078.000000, 1817.000000)">
                <circle id="Oval-Copy" fill="#4FB287" cx="100" cy="100" r="100"></circle>
                <g id="streamline-icon-restaurant-dishes@140x140" transform="translate(41.000000, 45.000000)" stroke="#FFFFFF" stroke-linecap="round" stroke-linejoin="round" stroke-width="7.875">
                    <path d="M55.4625,83.3625 L38.6625,65.859 C35.6479486,62.8320051 34.9078561,58.2159427 36.825,54.39825 L36.825,54.39825 C38.2511284,51.5434515 40.9632638,49.5487882 44.113313,49.0379975 C47.2633621,48.5272068 50.4668366,49.5626349 52.722,51.8205 L55.4625,54.561 L58.203,51.8205 C60.4581634,49.5626349 63.6616379,48.5272068 66.811687,49.0379975 C69.9617362,49.5487882 72.6738716,51.5434515 74.1,54.39825 L74.1,54.39825 C76.0117943,58.2203204 75.2631519,62.8369479 72.2415,65.859 L55.4625,83.3625 Z" id="Path"></path>
                    <line x1="8.2125" y1="40.05" x2="8.2125" y2="110.925" id="Path"></line>
                    <path d="M102.69675,71.55 L114.525,71.55 C116.695527,71.5500077 118.456712,69.7935196 118.4625,67.623 C118.5045,47.51025 118.6095,23.2185 110.27775,3.10575 C109.559267,1.36963128 107.714231,0.383041445 105.87141,0.749562304 C104.028589,1.11608316 102.701485,2.73358378 102.702,4.6125 L102.702,110.925" id="Path"></path>
                    <path d="M0.3375,0.675 L0.3375,32.175 C0.3375,36.5242424 3.8632576,40.05 8.2125,40.05 L8.2125,40.05 C12.5617424,40.05 16.0875,36.5242424 16.0875,32.175 L16.0875,0.675" id="Path"></path>
                    <path d="M83.025,37.76625 C75.8988206,30.1187015 65.9156063,25.7756857 55.4625,25.7756857 C45.0093937,25.7756857 35.0261794,30.1187015 27.9,37.76625" id="Path"></path>
                    <path d="M27.9,89.58375 C35.0261794,97.2312985 45.0093937,101.574314 55.4625,101.574314 C65.9156063,101.574314 75.8988206,97.2312985 83.025,89.58375" id="Path"></path>
                </g>
            </g>
        </g>
    </g>
</svg>