<?xml version="1.0" encoding="UTF-8"?>
<svg width="100px" height="60px" viewBox="0 0 100 60" version="1.1" xmlns="http://www.w3.org/2000/svg" xmlns:xlink="http://www.w3.org/1999/xlink">
    <title>maestro</title>
    <g id="Page-1" stroke="none" stroke-width="1" fill="none" fill-rule="evenodd">
        <g id="Artboard" transform="translate(-41.000000, -53.000000)">
            <g id="maestro" transform="translate(41.000000, 53.000000)">
                <rect fill="#FFFFFF" x="0" y="0" width="100" height="60" rx="4"></rect>
                <g id="Group-5" transform="translate(10.000000, 6.000000)">
                    <path d="M39.9050124,41.8826875 C44.7254888,37.4815499 47.7534305,31.1240668 47.7534305,24.054177 C47.7534305,16.9838606 44.7254888,10.6263775 39.9050124,6.22566655 C35.6676857,2.35734092 30.0456452,3.6262181e-13 23.8767153,3.6262181e-13 C10.6903662,3.6262181e-13 2.74416505e-13,10.7692855 2.74416505e-13,24.054177 C2.74416505e-13,37.3382154 10.6903662,48.1079275 23.8767153,48.1079275 C30.0456452,48.1079275 35.6676857,45.7510132 39.9050124,41.8826875" id="Fill-2" fill="#0092C7"></path>
                    <path d="M39.9050124,6.22566655 C39.0415926,7.0140064 38.2357625,7.86590828 37.4943477,8.77241379 L42.3143974,8.77241379 C42.9739069,9.57909705 43.582652,10.4297192 44.1350871,11.319161 L35.6740846,11.319161 C35.1664415,12.1373622 34.70615,12.9871312 34.297476,13.8667615 L45.5099893,13.8667615 C45.8934945,14.6909349 46.2330608,15.5407039 46.5231426,16.4130821 L33.2864557,16.4130821 C33.0108781,17.2428013 32.7788127,18.0925702 32.5932456,18.960256 L47.2163526,18.960256 C47.5678635,20.6022041 47.7534305,22.3060078 47.7534305,24.054177 C47.7534305,26.7246356 47.3208674,29.2944188 46.5231426,31.6944188 L33.2864557,31.6944188 C33.5761109,32.566797 33.9139708,33.4174191 34.297476,34.2415926 L45.5099893,34.2415926 C45.1013153,35.1207963 44.6423036,35.9709918 44.1350871,36.7887664 L35.6740846,36.7887664 C36.2260931,37.6782083 36.8348383,38.5288304 37.4939211,39.3355137 L42.3143974,39.3355137 C41.5729826,40.2420192 40.7684323,41.0943477 39.9050124,41.8826875 C44.1423391,45.7510132 49.7643797,48.1079275 55.932883,48.1079275 C69.1192321,48.1079275 79.8095983,37.3382154 79.8095983,24.054177 C79.8095983,10.7692855 69.1192321,3.6262181e-13 55.932883,3.6262181e-13 C49.7643797,3.6262181e-13 44.1423391,2.35734092 39.9050124,6.22566655 Z" id="Fill-3" fill="#D82332"></path>
                    <path d="M76.6306434,37.46278 C76.6306434,37.0336296 76.9757554,36.6855315 77.4014931,36.6855315 C77.8276573,36.6855315 78.1727693,37.0336296 78.1727693,37.46278 C78.1727693,37.8910771 77.8276573,38.2391753 77.4014931,38.2391753 C76.9757554,38.2391753 76.6306434,37.8910771 76.6306434,37.46278 Z M77.4014931,38.0527551 C77.7252755,38.0527551 77.9876289,37.7886953 77.9876289,37.46278 C77.9876289,37.1360114 77.7252755,36.8719517 77.4014931,36.8719517 C77.0777106,36.8719517 76.8153573,37.1360114 76.8153573,37.46278 C76.8153573,37.7886953 77.0777106,38.0527551 77.4014931,38.0527551 Z M77.2974049,37.8031994 L77.1391397,37.8031994 L77.1391397,37.1206541 L77.4258087,37.1206541 C77.4851049,37.1206541 77.5465339,37.1219339 77.5981514,37.155208 C77.6540348,37.192748 77.6847494,37.2584429 77.6847494,37.3258443 C77.6847494,37.4026306 77.6399573,37.4751511 77.5674369,37.5024529 L77.692428,37.8031994 L77.5170992,37.8031994 L77.4134376,37.5331674 L77.2974049,37.5331674 L77.2974049,37.8031994 L77.2974049,37.4167081 L77.384856,37.4167081 C77.4168503,37.4167081 77.452684,37.4188411 77.480839,37.4026306 C77.506861,37.3864202 77.5205119,37.3548525 77.5205119,37.3245645 C77.5205119,37.2985425 77.504728,37.2682545 77.4825453,37.2550302 C77.4552435,37.2388198 77.4108781,37.2426591 77.3814433,37.2426591 L77.2974049,37.2426591 L77.2974049,37.8031994 L77.2974049,37.8031994 Z" id="Fill-4" fill="#D82332"></path>
                    <path d="M71.5810878,29.267117 C71.5810878,28.8383932 71.9261998,28.4902951 72.3519374,28.4902951 C72.7781017,28.4902951 73.1232137,28.8383932 73.1232137,29.267117 C73.1232137,29.6962673 72.7781017,30.0439389 72.3519374,30.0439389 C71.9261998,30.0439389 71.5810878,29.6962673 71.5810878,29.267117 Z M72.3519374,29.8575187 C72.6757199,29.8575187 72.9376466,29.5930323 72.9376466,29.267117 C72.9376466,28.9412016 72.6757199,28.6771418 72.3519374,28.6771418 C72.028155,28.6771418 71.7658016,28.9412016 71.7658016,29.267117 C71.7658016,29.5930323 72.028155,29.8575187 72.3519374,29.8575187 Z M72.2478493,29.607963 L72.0895841,29.607963 L72.0895841,28.9258443 L72.3762531,28.9258443 C72.4351226,28.9258443 72.4969783,28.9266975 72.5485958,28.9603982 C72.6044792,28.9979381 72.6351937,29.0636331 72.6351937,29.1310345 C72.6351937,29.2078208 72.5908283,29.2799147 72.5178813,29.3067899 L72.6424458,29.607963 L72.4675435,29.607963 L72.363882,29.3383576 L72.2478493,29.3383576 L72.2478493,29.607963 L72.2478493,29.2210451 L72.3353004,29.2210451 C72.3677213,29.2210451 72.4031283,29.2240313 72.4312833,29.2078208 C72.4573054,29.1911838 72.4713829,29.1591895 72.4713829,29.1297547 C72.4713829,29.1033061 72.4547458,29.0734447 72.4325631,29.0602204 C72.4056879,29.0435834 72.3613224,29.0474227 72.3318877,29.0474227 L72.2478493,29.0474227 L72.2478493,29.607963 L72.2478493,29.607963 Z" id="Fill-5" fill="#FFFFFE"></path>
                    <polyline id="Fill-6" fill="#FFFFFE" points="20.8939922 30.0439389 17.9223605 30.0439389 19.6884465 20.6691788 15.6217561 30.0439389 12.9124778 30.0439389 12.4172058 20.7229293 10.6451475 30.0439389 7.94824031 30.0439389 10.2531106 17.8489868 14.8901529 17.8489868 15.1354426 25.3987913 18.4048347 17.8489868 23.2364024 17.8489868 20.8939922 30.0439389"></polyline>
                    <path d="M54.1040882,29.9219339 C53.291006,30.1471738 52.6553857,30.24401 51.9690011,30.24401 C50.4482048,30.24401 49.6184856,29.4761465 49.6184856,28.0658372 C49.6184856,27.7872734 49.6492001,27.4899396 49.7063633,27.1763953 L49.8868112,26.2059012 L50.0258798,25.420974 L51.4033416,17.8481337 L54.3583363,17.8481337 L53.9304657,20.1257021 L55.4469961,20.1257021 L55.0387487,22.5367935 L53.516246,22.5367935 L52.7330252,26.6742979 C52.6980448,26.8560256 52.6818343,26.9925347 52.6818343,27.0855315 C52.6818343,27.5974405 52.9894063,27.8205475 53.6962673,27.8205475 C54.0349804,27.8205475 54.2969072,27.7894063 54.4974049,27.7275507 L54.1040882,29.9219339" id="Fill-7" fill="#FFFFFE"></path>
                    <path d="M62.7835052,20.2076075 C62.5348027,20.1090651 62.4759332,20.1090651 62.4473516,20.1005332 C62.2899396,20.0655528 62.2054746,20.0450764 62.1913971,20.0425169 C62.1013864,20.0263064 62.000711,20.0177746 61.8923569,20.0177746 C60.9163171,20.0177746 60.213722,20.4558834 59.3038038,21.628155 L59.5661571,20.1257021 L56.8747956,20.1257021 L55.0634909,30.0439389 L58.0372556,30.0439389 C59.1007465,23.9782439 59.5571987,22.9156061 60.9837185,22.9156061 C61.0903662,22.9156061 61.2149307,22.9241379 61.3586918,22.940775 L61.7063633,23.0124422 L62.7835052,20.2076075" id="Fill-8" fill="#FFFFFE"></path>
                    <path d="M42.324209,23.2594383 C42.324209,24.5127622 43.0246712,25.3757554 44.613722,26.0241735 C45.8307856,26.5215784 46.0193388,26.6683256 46.0193388,27.118379 C46.0193388,27.7356559 45.4826875,28.0142197 44.2937789,28.0142197 C43.3958052,28.0142197 42.5618201,27.8926413 41.5990046,27.6221827 L41.1869179,29.9099893 L41.3200142,29.9325986 L41.8711696,30.0337007 C42.0477782,30.0644152 42.3101315,30.09385 42.6565233,30.1207252 C43.3714895,30.176182 43.9247778,30.2030572 44.3142552,30.2030572 C47.4863846,30.2030572 48.9521507,29.1562033 48.9521507,26.8935656 C48.9521507,25.5327408 48.3395663,24.7337362 46.8328475,24.1330963 C45.5722716,23.6314255 45.4272307,23.5196587 45.4272307,23.0572343 C45.4272307,22.522716 45.9271952,22.2475649 46.8985425,22.2475649 C47.4889442,22.2475649 48.2943477,22.3034483 49.0587984,22.3964451 L49.4870956,20.1005332 C48.7085674,19.9934589 47.527764,19.9064344 46.8413793,19.9064344 C43.4781372,19.9064344 42.3139708,21.4302169 42.324209,23.2594383" id="Fill-9" fill="#FFFFFE"></path>
                    <path d="M30.5545681,30.0439389 L28.0850338,30.0439389 L28.1426235,29.015855 C27.3905439,29.8297903 26.3880555,30.2154284 25.0255244,30.2154284 C23.4147174,30.2154284 22.3098471,29.1109847 22.3098471,27.5065766 C22.3098471,25.0907927 24.2299325,23.6826164 27.5300391,23.6826164 C27.8683256,23.6826164 28.2979026,23.7094916 28.7407039,23.7589762 C28.8328475,23.4330608 28.8580164,23.2922858 28.8580164,23.114824 C28.8580164,22.4583007 28.3397085,22.213011 26.9520085,22.213011 C26.1035194,22.213011 25.1445432,22.3205119 24.4824742,22.4894419 L24.0708141,22.5948098 L23.8037682,22.6587984 L24.215855,20.4290082 C25.6978315,20.0472094 26.6755777,19.9021685 27.7736225,19.9021685 C30.3276218,19.9021685 31.6777817,20.909776 31.6777817,22.811518 C31.6777817,23.3008176 31.6329897,23.6723782 31.4363313,24.7768219 L30.8152151,28.2953431 L30.7107003,28.9266975 L30.6347672,29.4309278 L30.5840028,29.7756132 L30.5545681,30.0439389 Z M28.3866335,25.6253111 C28.0747956,25.5924636 27.9374333,25.5843583 27.7224316,25.5843583 C26.038251,25.5843583 25.1850693,26.0920014 25.1850693,27.0936367 C25.1850693,27.7109136 25.601422,28.1055101 26.2515464,28.1055101 C27.4626378,28.1055101 28.335016,27.0919303 28.3866335,25.6253111 L28.3866335,25.6253111 Z" id="Fill-10" fill="#FFFFFE"></path>
                    <path d="M40.3038749,29.8297903 C39.285176,30.1015286 38.2997512,30.2337718 37.2584429,30.2320817 C33.9365802,30.2299325 32.2046214,28.70615 32.2046214,25.7886953 C32.2046214,22.3840739 34.4075364,19.8774262 37.3983647,19.8774262 C39.8448631,19.8774262 41.4066122,21.2813367 41.4066122,23.4825453 C41.4066122,24.213722 41.2999645,24.9257021 41.0414504,25.9311767 L35.1331674,25.9311767 C35.1105581,26.0843228 35.1045859,26.1521507 35.1045859,26.2430146 C35.1045859,27.3931034 35.9854959,27.9792392 37.7114824,27.9792392 C38.773267,27.9792392 39.7322432,27.785567 40.797867,27.3517241 L40.3038749,29.8297903 Z M38.7207963,23.9287593 C38.7370068,23.7218628 38.7455386,23.5529328 38.7455386,23.422396 C38.7455386,22.6174191 38.2246712,22.1447565 37.3399218,22.1447565 C36.3945965,22.1447565 35.7184501,22.7782439 35.4437256,23.9223605 L38.7207963,23.9287593 L38.7207963,23.9287593 Z" id="Fill-11" fill="#FFFFFE"></path>
                    <path d="M72.020903,25.5472449 C71.5763953,28.8464984 69.2894419,30.3101315 66.249129,30.3101315 C62.8867401,30.3101315 61.5284749,28.2548169 61.5284749,25.7383576 C61.5284749,22.2228226 63.8282261,19.841166 67.3804479,19.841166 C70.4629932,19.841166 72.1002488,21.8000711 72.1002488,24.316957 C72.1002488,24.9295414 72.0993957,24.9704941 72.020903,25.5472449 Z M68.9609669,24.2781372 C68.9609669,23.2410949 68.5429079,22.2612158 67.3241379,22.2612158 C65.8084607,22.2612158 64.8682545,24.0669748 64.8682545,25.6611447 C64.8682545,27.005759 65.5124067,27.9092784 66.5750444,27.8896552 C67.2191966,27.8896552 68.5923925,27.005759 68.8641308,25.4623534 C68.9276929,25.1018841 68.9609669,24.706861 68.9609669,24.2781372 L68.9609669,24.2781372 Z" id="Fill-12" fill="#FFFFFE"></path>
                </g>
            </g>
        </g>
    </g>
</svg>