<?xml version="1.0" encoding="UTF-8"?>
<svg width="100px" height="60px" viewBox="0 0 100 60" version="1.1" xmlns="http://www.w3.org/2000/svg" xmlns:xlink="http://www.w3.org/1999/xlink">
    <title>mastercard</title>
    <g id="Page-1" stroke="none" stroke-width="1" fill="none" fill-rule="evenodd">
        <g id="Artboard" transform="translate(-176.000000, -53.000000)">
            <g id="mastercard" transform="translate(176.000000, 53.000000)">
                <rect fill="#FFFFFF" x="0" y="0" width="100" height="60" rx="4"></rect>
                <g id="Group-4" transform="translate(20.000000, 7.000000)" fill-rule="nonzero">
                    <path d="M10.9666871,46.1272757 L10.9666871,43.0660512 C11.002779,42.5452324 10.8130197,42.0340661 10.4458203,41.6629604 C10.078621,41.2918546 9.56949127,41.0966969 9.04831973,41.1272757 C8.36150041,41.082249 7.7046103,41.4146042 7.33403402,41.9946226 C6.99617479,41.4318978 6.37754337,41.0990897 5.72178912,41.1272757 C5.1508286,41.0984119 4.60727971,41.3740688 4.29321769,41.8517655 L4.29321769,41.2497246 L3.2319932,41.2497246 L3.2319932,46.1272757 L4.30342177,46.1272757 L4.30342177,43.4436022 C4.25727808,43.1058931 4.36427772,42.765213 4.59522139,42.5145305 C4.82616505,42.2638481 5.15694688,42.1293295 5.49729932,42.1476838 C6.20138096,42.1476838 6.55852381,42.6068675 6.55852381,43.4333981 L6.55852381,46.1476838 L7.62995238,46.1476838 L7.62995238,43.4436022 C7.58570217,43.1062771 7.69335607,42.7667009 7.92387155,42.5164832 C8.15438704,42.2662655 8.48401519,42.1311852 8.82382994,42.1476838 C9.54831973,42.1476838 9.89525851,42.6068675 9.89525851,43.4333981 L9.89525851,46.1476838 L10.9666871,46.1272757 Z M26.8187279,41.2497246 L25.0738299,41.2497246 L25.0738299,39.7701328 L24.0024014,39.7701328 L24.0024014,41.2497246 L23.0330136,41.2497246 L23.0330136,42.2191124 L24.0228095,42.2191124 L24.0228095,44.4640104 C24.0228095,45.5966634 24.461585,46.2701469 25.7166871,46.2701469 C26.1855945,46.2717079 26.6454155,46.1408358 27.0432177,45.8925818 L26.7370952,44.9844185 C26.4525051,45.1541684 26.1295089,45.2489607 25.7983197,45.2599287 C25.2881156,45.2599287 25.0942381,44.9333981 25.0942381,44.4436022 L25.0942381,42.2191124 L26.828932,42.2191124 L26.8187279,41.2497246 Z M35.8697483,41.1272757 C35.3426653,41.1117743 34.8493315,41.3858487 34.584034,41.8415614 L34.584034,41.2497246 L33.5330136,41.2497246 L33.5330136,46.1272757 L34.5942381,46.1272757 L34.5942381,43.3925818 C34.5942381,42.5864593 34.9411769,42.1374797 35.6146463,42.1374797 C35.841628,42.1343749 36.0670009,42.1759822 36.2779116,42.2599287 L36.6044422,41.2395206 C36.3620809,41.1528185 36.1067406,41.1079614 35.8493401,41.1068675 L35.8697483,41.1272757 Z M22.1860748,41.6374797 C21.5853733,41.2803252 20.8947227,41.1032353 20.1962789,41.1272757 C18.961585,41.1272757 18.1554626,41.7191124 18.1554626,42.6885001 C18.1554626,43.4844185 18.7472993,43.9742144 19.8391361,44.1272757 L20.3493401,44.1987042 C20.9309728,44.2803369 21.206483,44.4333981 21.206483,44.7089083 C21.206483,45.0864593 20.8187279,45.300745 20.0942381,45.300745 C19.5114843,45.3176135 18.9400051,45.137903 18.4717891,44.790541 L17.961585,45.6170716 C18.5797554,46.0486994 19.3201676,46.2704654 20.0738299,46.2497246 C21.4819932,46.2497246 22.2983197,45.5864593 22.2983197,44.6578879 C22.2983197,43.7293165 21.6554626,43.3517655 20.5942381,43.1987042 L20.084034,43.1272757 C19.6248503,43.0660512 19.2575034,42.9742144 19.2575034,42.6476838 C19.2575034,42.3211532 19.6044422,42.0762553 20.1860748,42.0762553 C20.7236644,42.0825002 21.2506646,42.2265469 21.7166871,42.4946226 L22.1860748,41.6374797 Z M50.6095442,41.1272757 C50.0824612,41.1117743 49.5891274,41.3858487 49.3238299,41.8415614 L49.3238299,41.2497246 L48.2728095,41.2497246 L48.2728095,46.1272757 L49.334034,46.1272757 L49.334034,43.3925818 C49.334034,42.5864593 49.6809728,42.1374797 50.3544422,42.1374797 C50.5814239,42.1343749 50.8067968,42.1759822 51.0177075,42.2599287 L51.3442381,41.2395206 C51.1018769,41.1528185 50.8465366,41.1079614 50.5891361,41.1068675 L50.6095442,41.1272757 Z M36.9360748,43.6782961 C36.9105533,44.3713751 37.1782712,45.0431239 37.6735155,45.5286576 C38.1687599,46.0141912 38.8456778,46.268556 39.5381156,46.2293165 C40.1752986,46.2617348 40.8015003,46.0542144 41.2932177,45.6476838 L40.7830136,44.790541 C40.4161621,45.0702915 39.9688211,45.2241768 39.5075034,45.2293165 C38.6940854,45.1635018 38.0674975,44.4841682 38.0674975,43.668092 C38.0674975,42.8520158 38.6940854,42.1726821 39.5075034,42.1068675 C39.9688211,42.1120071 40.4161621,42.2658924 40.7830136,42.545643 L41.2932177,41.6885001 C40.8015003,41.2819695 40.1752986,41.0744492 39.5381156,41.1068675 C38.8456778,41.067628 38.1687599,41.3219927 37.6735155,41.8075264 C37.1782712,42.2930601 36.9105533,42.9648089 36.9360748,43.6578879 L36.9360748,43.6782961 Z M46.8748503,43.6782961 L46.8748503,41.2497246 L45.8136259,41.2497246 L45.8136259,41.8415614 C45.4480153,41.3711277 44.8784097,41.1053118 44.2830136,41.1272757 C42.8741239,41.1272757 41.7319932,42.2694064 41.7319932,43.6782961 C41.7319932,45.0871857 42.8741239,46.2293165 44.2830136,46.2293165 C44.8784097,46.2512804 45.4480153,45.9854644 45.8136259,45.5150308 L45.8136259,46.1068675 L46.8748503,46.1068675 L46.8748503,43.6782961 Z M42.9258708,43.6782961 C42.9730621,42.8776168 43.6516064,42.2615147 44.4531108,42.2915984 C45.2546152,42.3216821 45.8850658,42.9869162 45.8721034,43.7888802 C45.859141,44.5908442 45.2075206,45.2353557 44.4054626,45.2395206 C43.9970642,45.244688 43.6050668,45.0790501 43.3241168,44.7825994 C43.0431667,44.4861486 42.8987991,44.085829 42.9258708,43.6782961 L42.9258708,43.6782961 Z M30.1197483,41.1272757 C28.7108586,41.1470001 27.5847177,42.3051207 27.6044422,43.7140104 C27.6241666,45.1229 28.7822872,46.2490409 30.1911769,46.2293165 C30.9252276,46.2669945 31.647098,46.0306137 32.2166871,45.5660512 L31.706483,44.7803369 C31.3036065,45.1034382 30.8044941,45.2829751 30.2881156,45.290541 C29.5587107,45.3532706 28.9118811,44.8240464 28.828932,44.0966634 L32.451381,44.0966634 C32.451381,43.9640104 32.451381,43.8313573 32.451381,43.6885001 C32.451381,42.1578879 31.5024014,41.1374797 30.1350544,41.1374797 L30.1197483,41.1272757 Z M30.1197483,42.0762553 C30.4404641,42.0694177 30.7507534,42.190301 30.9823192,42.412298 C31.213885,42.634295 31.3477474,42.9392099 31.3544422,43.2599287 L28.8034218,43.2599287 C28.8418546,42.5787161 29.4174413,42.0529835 30.0993401,42.0762553 L30.1197483,42.0762553 Z M56.706483,43.6885001 L56.706483,39.290541 L55.6860748,39.290541 L55.6860748,41.8415614 C55.3204643,41.3711277 54.7508587,41.1053118 54.1554626,41.1272757 C52.7465729,41.1272757 51.6044422,42.2694064 51.6044422,43.6782961 C51.6044422,45.0871857 52.7465729,46.2293165 54.1554626,46.2293165 C54.7508587,46.2512804 55.3204643,45.9854644 55.6860748,45.5150308 L55.6860748,46.1068675 L56.706483,46.1068675 L56.706483,43.6885001 Z M58.4768912,45.418092 C58.5432243,45.4172793 58.6090793,45.4294105 58.6707687,45.4538063 C58.7293619,45.4777165 58.7829955,45.5123188 58.828932,45.5558471 C58.8737632,45.5998376 58.9100864,45.6517279 58.9360748,45.7089083 C58.9882999,45.8293406 58.9882999,45.966027 58.9360748,46.0864593 C58.9100864,46.1436398 58.8737632,46.1955301 58.828932,46.2395206 C58.7829955,46.2830488 58.7293619,46.3176511 58.6707687,46.3415614 C58.6096883,46.368513 58.5436535,46.3824151 58.4768912,46.3823778 C58.2794675,46.3808896 58.1006222,46.2656337 58.0177075,46.0864593 C57.9660871,45.9659023 57.9660871,45.8294653 58.0177075,45.7089083 C58.0436959,45.6517279 58.0800191,45.5998376 58.1248503,45.5558471 C58.1707868,45.5123188 58.2244204,45.4777165 58.2830136,45.4538063 C58.3494677,45.4273718 58.4207369,45.4152038 58.4921973,45.418092 L58.4768912,45.418092 Z M58.4768912,46.2803369 C58.5278144,46.2806462 58.5782306,46.2702153 58.6248503,46.2497246 C58.6687465,46.2301264 58.7085566,46.2024324 58.7421973,46.168092 C58.8744917,46.0237516 58.8744917,45.8022283 58.7421973,45.6578879 C58.7086368,45.6234527 58.6688074,45.5957453 58.6248503,45.5762553 C58.5781846,45.555909 58.5277993,45.5454845 58.4768912,45.5456412 C58.426027,45.5459118 58.3757269,45.5563187 58.328932,45.5762553 C58.2830925,45.5950512 58.2414637,45.6228037 58.206483,45.6578879 C58.0741886,45.8022283 58.0741886,46.0237516 58.206483,46.168092 C58.2415496,46.2030713 58.2831562,46.2308091 58.328932,46.2497246 C58.3804063,46.2719226 58.4361778,46.2823797 58.4921973,46.2803369 L58.4768912,46.2803369 Z M58.5075034,45.673194 C58.5551316,45.6708843 58.6020651,45.6853254 58.6401565,45.7140104 C58.6718414,45.7402328 58.6889378,45.7801245 58.6860748,45.8211532 C58.6875559,45.8554161 58.6746006,45.8887298 58.6503605,45.9129899 C58.6207882,45.9398501 58.5830629,45.9560181 58.5432177,45.9589083 L58.6911769,46.1272757 L58.5738299,46.1272757 L58.4360748,45.9589083 L58.3901565,45.9589083 L58.3901565,46.1272757 L58.2932177,46.1272757 L58.2932177,45.6782961 L58.5075034,45.673194 Z M58.3952585,45.7599287 L58.3952585,45.8823777 L58.5075034,45.8823777 C58.5274772,45.8883327 58.5487541,45.8883327 58.5687279,45.8823777 C58.5760049,45.8679365 58.5760049,45.8509005 58.5687279,45.8364593 C58.5760049,45.8220181 58.5760049,45.8049822 58.5687279,45.790541 C58.5487541,45.7845859 58.5274772,45.7845859 58.5075034,45.790541 L58.3952585,45.7599287 Z M52.7830136,43.6885001 C52.8302049,42.8878209 53.5087493,42.2717187 54.3102537,42.3018025 C55.1117581,42.3318862 55.7422086,42.9971202 55.7292462,43.7990843 C55.7162838,44.6010483 55.0646634,45.2455598 54.2626054,45.2497246 C53.854207,45.2548921 53.4622097,45.0892542 53.1812597,44.7928034 C52.9003096,44.4963527 52.7559419,44.0960331 52.7830136,43.6885001 L52.7830136,43.6885001 Z M16.951381,43.6885001 L16.951381,41.2497246 L15.8901565,41.2497246 L15.8901565,41.8415614 C15.5245459,41.3711277 14.9549403,41.1053118 14.3595442,41.1272757 C12.9506546,41.1272757 11.8085238,42.2694064 11.8085238,43.6782961 C11.8085238,45.0871857 12.9506546,46.2293165 14.3595442,46.2293165 C14.9549403,46.2512804 15.5245459,45.9854644 15.8901565,45.5150308 L15.8901565,46.1068675 L16.951381,46.1068675 L16.951381,43.6885001 Z M13.0024014,43.6885001 C13.0495927,42.8878209 13.728137,42.2717187 14.5296414,42.3018025 C15.3311458,42.3318862 15.9615964,42.9971202 15.948634,43.7990843 C15.9356716,44.6010483 15.2840512,45.2455598 14.4819932,45.2497246 C14.0718348,45.2577768 13.6771085,45.0934017 13.3938956,44.7966101 C13.1106827,44.4998185 12.9649597,44.0978324 12.9921973,43.6885001 L13.0024014,43.6885001 Z" id="Shape" fill="#231F20"></path>
                    <rect id="Rectangle" fill="#FF5F00" x="21.834034" y="4.08135729" width="16.0714286" height="28.8826531"></rect>
                    <path d="M22.8544422,18.5252348 C22.8484333,12.8882411 25.4354849,7.56173701 29.8697483,4.08135729 C22.3390291,-1.83698364 11.5246143,-0.974926101 5.02658396,6.06169903 C-1.47144635,13.0983242 -1.47144635,23.9470435 5.02658396,30.9836686 C11.5246143,38.0202937 22.3390291,38.8823513 29.8697483,32.9640104 C25.4368956,29.4847355 22.850002,24.1604382 22.8544422,18.5252348 L22.8544422,18.5252348 Z" id="_Path_" fill="#EB001B"></path>
                    <path d="M59.5891361,18.5252348 C59.5891361,25.5575718 55.5735345,31.9725054 49.2481949,35.0455889 C42.9228553,38.1186723 35.3981104,37.3103853 29.8697483,32.9640104 C34.3006668,29.4817817 36.8877551,24.1581922 36.8877551,18.5226838 C36.8877551,12.8871754 34.3006668,7.56358595 29.8697483,4.08135729 C35.3981104,-0.26501762 42.9228553,-1.07330466 49.2481949,1.99977878 C55.5735345,5.07286222 59.5891361,11.4877959 59.5891361,18.5201328 L59.5891361,18.5252348 Z" id="Path" fill="#F79E1B"></path>
                </g>
            </g>
        </g>
    </g>
</svg>