<?xml version="1.0" encoding="UTF-8"?>
<svg width="100px" height="60px" viewBox="0 0 100 60" version="1.1" xmlns="http://www.w3.org/2000/svg" xmlns:xlink="http://www.w3.org/1999/xlink">
    <title>postfinance</title>
    <g id="Page-1" stroke="none" stroke-width="1" fill="none" fill-rule="evenodd">
        <g id="Artboard" transform="translate(-311.000000, -53.000000)">
            <g id="postfinance" transform="translate(311.000000, 53.000000)">
                <rect fill="#FFCC00" x="0" y="0" width="100" height="60" rx="4"></rect>
                <g transform="translate(0.000000, 17.000000)" fill-rule="nonzero">
                    <polygon id="Path" fill="#FFCC00" points="0 0 100 0 100 26.6000298 0 26.6000298"></polygon>
                    <polygon id="Path" fill="#FFFFFF" points="6.84768014 15.8884082 5.92272117 20.2446666 81.0532597 20.2446666 81.9782187 15.8884082"></polygon>
                    <path d="M90.0939878,9.95076831 C90.0939878,9.95076831 91.1084589,5.32597344 91.1233776,5.29613606 L84.7232582,5.29613606 C84.7232582,5.32597344 83.3954946,11.4277189 83.3954946,11.4575563 L85.0365508,11.4575563 C85.0514695,11.4575563 86.0361032,6.84768014 86.0361032,6.84768014 L89.1391914,6.84768014 C89.1391914,6.84768014 88.1545577,11.472475 88.139639,11.5023124 L92.8688647,11.5023124 L92.2571983,14.3517828 L87.5578099,14.3517828 C87.5578099,14.3816202 86.6030136,18.6931225 86.6030136,18.6931225 L83.0523646,18.6931225 C83.0523646,18.7080412 82.7390721,20.2446666 82.7241534,20.2595853 L87.9606147,20.2595853 C87.9606147,20.2446666 88.9004923,15.9033269 88.9004923,15.9033269 L93.5998807,15.9033269 C93.5998807,15.8884082 94.8381322,9.99552439 94.8381322,9.96568701 L90.0939878,9.96568701 L90.0939878,9.95076831 Z" id="Path" fill="#E2000E"></path>
                    <path d="M11.3531255,12.4123527 L12.0244667,9.23467104 L12.8897509,9.23467104 C13.8445472,9.23467104 14.292108,9.62255706 14.292108,10.5325973 C14.292108,11.6962554 13.561092,12.4123527 12.203491,12.4123527 L11.3531255,12.4123527 Z M10.9950768,14.1727585 L11.9051171,14.1727585 C14.7993436,14.1727585 16.4105624,12.7554826 16.4105624,10.3684917 C16.4105624,8.59316724 15.1573922,7.44442787 13.0091004,7.44442787 L10.3386543,7.44442787 L8.29479338,17.111741 L10.3684917,17.111741 L10.9950768,14.1727585 Z M19.6777562,15.6795465 C18.8572281,15.6795465 18.2157243,15.0380427 18.5140982,13.5461734 C18.812472,12.0692227 19.5285693,11.4128002 20.3490974,11.4128002 C21.1696255,11.4128002 21.8111293,12.0692227 21.4978368,13.5461734 C21.1994629,15.023124 20.4982844,15.6795465 19.6777562,15.6795465 M19.4838132,17.3355214 C21.7365359,17.3355214 23.2731613,15.6944652 23.6162912,13.5461734 C23.9743398,11.3978815 22.7808444,9.7568253 20.5281217,9.7568253 C18.2753991,9.7568253 16.7387737,11.3978815 16.3956437,13.5461734 C16.0375951,15.6944652 17.2310906,17.3355214 19.4838132,17.3355214 M27.2266149,15.023124 C27.2266149,15.604953 26.5254364,15.6944652 25.9286886,15.6944652 C25.182754,15.6944652 24.3473072,15.5005222 23.8997464,15.3513352 L23.5566164,16.9625541 C24.1981202,17.1266597 25.0186484,17.2460092 25.7944204,17.2460092 C27.6294197,17.2460092 29.1362077,16.5597494 29.1362077,14.829181 C29.1362077,12.6062957 26.4657616,12.9941817 26.4657616,11.9946293 C26.4657616,11.5470685 26.8984037,11.3829629 27.5697449,11.3829629 C28.2112487,11.3829629 29.121289,11.6365806 29.4196628,11.7260928 L29.7627928,10.0999552 C29.1511264,9.92093093 28.4051917,9.83141877 27.7487692,9.83141877 C25.7496643,9.83141877 24.5412502,10.7265404 24.5412502,12.203491 C24.5561689,14.3965389 27.2266149,14.0384902 27.2266149,15.023124 M35.0290915,11.5619872 L35.3573027,9.99552439 L33.1493361,9.99552439 L33.5819782,8.01133821 L31.4336864,8.48873639 L30.091004,14.5904819 C29.7180367,16.3210503 30.6728331,17.2609279 32.3884828,17.2609279 C32.7465314,17.2609279 33.3581978,17.1863345 33.7908399,17.0520662 L34.1339699,15.4856035 C33.7908399,15.5751156 33.3581978,15.6646278 32.9852305,15.6646278 C32.3884828,15.6646278 31.9707594,15.4706848 32.1199463,14.7396688 L32.7912875,11.5769059 L35.0290915,11.5769059 L35.0290915,11.5619872 Z M37.0580337,17.1266597 L37.8636431,13.3969864 L40.9667313,13.3969864 L41.3396986,11.5769059 L38.2515292,11.5769059 L38.7289273,9.29434582 L41.9961211,9.29434582 L42.3989259,7.47426525 L36.9983589,7.47426525 L34.954498,17.1415784 L37.0580337,17.1415784 L37.0580337,17.1266597 Z M42.8614053,9.99552439 L41.3247799,17.1266597 L43.3686409,17.1266597 L44.9052663,9.99552439 L42.8614053,9.99552439 Z M43.1597792,8.01133821 C43.1150231,8.65284201 43.5924213,9.16007758 44.2190064,9.16007758 C44.920185,9.16007758 45.4274206,8.65284201 45.4721766,8.01133821 C45.5169327,7.3698344 45.0395345,6.86259884 44.4129494,6.86259884 C43.6968522,6.86259884 43.1896166,7.3698344 43.1597792,8.01133821 M46.8297777,17.1266597 L47.6204684,13.4864986 C47.933761,12.0244667 48.6498583,11.5172311 49.4107116,11.5172311 C50.3804267,11.5172311 50.4848575,12.2333284 50.3058332,13.0538565 L49.440549,17.1266597 L51.4993287,17.1266597 L52.4093689,12.9494256 C52.8569297,10.8608086 51.8872147,9.771744 50.3804267,9.771744 C49.5449799,9.771744 48.7393704,10.0999552 48.0531105,10.8309712 L48.2470536,9.9806057 L46.3374608,9.9806057 L44.8008354,17.111741 L46.8297777,17.111741 L46.8297777,17.1266597 Z M56.8103834,9.81650007 C55.8555871,9.81650007 54.9007907,10.0253618 54.5874981,10.1297926 L54.2294495,11.7857676 C54.691929,11.6514993 55.6019693,11.4128002 56.4075787,11.4128002 C57.4817246,11.4128002 57.8696106,11.7410115 57.8696106,12.3079218 C57.8696106,12.4123527 57.8696106,12.5167835 57.8397732,12.6361331 L57.8099358,12.78532 C57.2877816,12.7256452 56.8103834,12.6808892 56.5716843,12.6808892 C54.5278234,12.6808892 52.8867671,13.4715799 52.8867671,15.3364165 C52.8867671,16.5597494 53.8415635,17.2907653 55.079815,17.2907653 C55.9600179,17.2907653 56.7059526,16.9476354 57.1982694,16.3658064 L57.0341638,17.111741 L58.8542444,17.111741 L59.749366,13.0240191 C59.8239594,12.7256452 59.8537968,12.4123527 59.8537968,12.0990601 C59.8537968,10.890646 59.1824556,9.81650007 56.8103834,9.81650007 M54.8261972,15.0678801 C54.8261972,14.3517828 55.4527823,13.9489781 56.5120095,13.9489781 C56.7208713,13.9489781 57.1535134,13.9638968 57.5563181,14.0235715 L57.4668059,14.4263762 C57.2281068,15.2767418 56.5269282,15.8436521 55.7064001,15.8436521 C55.1245711,15.8436521 54.8261972,15.5601969 54.8261972,15.0678801 M62.2109503,17.1266597 L63.0016411,13.4864986 C63.3149336,12.0244667 64.0310309,11.5172311 64.7918842,11.5172311 C65.7615993,11.5172311 65.8660301,12.2333284 65.6870058,13.0538565 L64.8217216,17.1266597 L66.8805013,17.1266597 L67.7905415,12.9494256 C68.2381023,10.8608086 67.2683873,9.771744 65.7615993,9.771744 C64.9261525,9.771744 64.120543,10.0999552 63.4342832,10.8309712 L63.6282262,9.9806057 L61.7186334,9.9806057 L60.1820081,17.111741 L62.2109503,17.111741 L62.2109503,17.1266597 Z M72.1617186,15.5900343 C71.221841,15.5900343 70.5952559,15.1872296 70.5952559,14.0235715 C70.5952559,12.6510518 71.4605401,11.5172311 72.8181411,11.5172311 C73.2507832,11.5172311 73.7431001,11.6514993 74.235417,11.8305236 L74.5785469,10.1894674 C74.0116366,9.99552439 73.3552141,9.84633746 72.6987916,9.84633746 C70.4460689,9.84633746 68.5066388,11.5321498 68.5066388,14.1130837 C68.5066388,16.2464568 69.8194838,17.2460092 71.6992391,17.2460092 C72.3258243,17.2460092 72.8628972,17.1266597 73.2507832,16.9774728 L73.6237506,15.2916605 C73.1911085,15.4557661 72.7137103,15.5900343 72.1617186,15.5900343 M79.9641951,17.0371475 L80.3371625,15.3214978 C79.7105774,15.5303595 79.0839922,15.7093839 78.2933015,15.7093839 C77.3683425,15.7093839 76.5627331,15.3960913 76.517977,14.292108 L81.2621214,14.292108 C81.4411458,13.7251977 81.5306579,13.173206 81.5306579,12.6510518 C81.5306579,11.0696703 80.6056989,9.771744 78.6364314,9.771744 C76.0704162,9.771744 74.5188721,11.8752797 74.5188721,14.1876772 C74.5188721,16.1718633 75.8466358,17.3355214 77.9054155,17.3355214 C78.755781,17.3355214 79.4271222,17.2161719 79.9641951,17.0371475 M78.5170819,11.3083694 C79.1884231,11.3083694 79.6509026,11.7708489 79.6509026,12.5317022 C79.6509026,12.6659705 79.6359839,12.7704013 79.6210652,12.9046696 L76.6970013,12.9046696 C77.0102939,11.9498732 77.6517977,11.3083694 78.5170819,11.3083694" id="Shape" fill="#171715"></path>
                </g>
            </g>
        </g>
    </g>
</svg>