<?xml version="1.0" encoding="UTF-8"?>
<svg width="100px" height="60px" viewBox="0 0 100 60" version="1.1" xmlns="http://www.w3.org/2000/svg" xmlns:xlink="http://www.w3.org/1999/xlink">
    <title>reka</title>
    <g id="Page-1" stroke="none" stroke-width="1" fill="none" fill-rule="evenodd">
        <g id="Artboard" transform="translate(-716.000000, -53.000000)">
            <g id="reka" transform="translate(716.000000, 53.000000)">
                <rect id="twint" fill="#FFFFFF" x="0" y="0" width="100" height="60" rx="4"></rect>
                <g id="Schweizer_Reisekasse_logo" transform="translate(10.000000, 16.000000)" fill-rule="nonzero">
                    <path d="M14.0760563,8.16338028 C12.0366197,8.16338028 10.0478873,8.89577465 8.7915493,11.5661972 L8.89577465,8.89577465 L2.66760563,8.89577465 L0,27.4760563 L6.43661972,27.4760563 L7.53521127,19.9408451 C8.16338028,15.5971831 10.3605634,14.1295775 12.2450704,14.1295775 C13.2901408,14.1295775 14.0760563,14.5492958 14.4422535,14.7577465 L17.0056338,9.15774648 C16.5887324,8.7915493 15.3859155,8.16338028 14.0760563,8.16338028" id="Path" fill="#0F288D"></path>
                    <path d="M51.2873239,27.4760563 L58.6647887,27.4760563 L52.9605634,16.9577465 C56.5211268,15.0225352 59.1352113,11.8816901 60.4957746,8.89859155 L53.5352113,8.89859155 C51.9633803,11.6732394 49.0873239,14.3408451 46.1042254,15.9126761 L48.3577465,0 L41.971831,0 L38.0985915,27.4760563 L44.484507,27.4760563 L45.8985915,17.5323944 L51.2873239,27.4760563 Z" id="Path" fill="#CE0E2D"></path>
                    <path d="M29.9352113,16.171831 L23.2366197,16.171831 C23.8112676,13.8676056 25.3830986,12.1943662 27.4225352,12.1943662 C30.0929577,12.1943662 30.143662,14.3380282 29.9352113,16.171831 M28.0507042,8.16338028 C20.9859155,8.16338028 16.4338028,13.0309859 16.4338028,19.3633803 C16.4338028,24.1267606 19.571831,27.9971831 26.115493,27.9971831 C30.143662,27.9971831 33.0225352,26.6901408 35.0140845,25.171831 L32.028169,21.5605634 C31.2957746,22.1887324 29.7774648,23.2338028 27.2647887,23.2338028 C24.9098592,23.2338028 23.2366197,21.715493 22.9746479,19.256338 L35.6929577,19.256338 C37.6788732,10.4676056 32.7098592,8.16338028 28.0507042,8.16338028" id="Shape" fill="#0F288D"></path>
                    <path d="M68.7661972,23.915493 C67.1971831,23.915493 66.5690141,23.1295775 66.5690141,21.9267606 C66.5690141,19.4676056 69.5521127,19.2056338 73.0056338,19.2056338 C72.3774648,21.8225352 71.0704225,23.915493 68.7661972,23.915493 M71.5943662,8.16338028 C67.8253521,8.16338028 64.4253521,9.36619718 62.3323944,11.6169014 L65.5239437,14.8619718 C67.0422535,13.2929577 68.715493,12.5070423 70.6,12.5070423 C72.9549296,12.5070423 73.5830986,13.8676056 73.4788732,16.1183099 L71.0704225,16.1183099 C63.8478873,16.1183099 60.0788732,18.4197183 60.0788732,22.8704225 C60.0788732,25.6957746 62.5380282,27.9971831 65.7830986,27.9971831 C69.0816901,27.9971831 70.9633803,26.5859155 72.0619718,25.3802817 L72.0619718,27.4732394 L78.1323944,27.4732394 L79.7014085,16.6394366 C80.543662,10.7802817 77.715493,8.16338028 71.5943662,8.16338028" id="Shape" fill="#CE0E2D"></path>
                </g>
            </g>
        </g>
    </g>
</svg>