<?xml version="1.0" encoding="UTF-8"?>
<svg width="100px" height="60px" viewBox="0 0 100 60" version="1.1" xmlns="http://www.w3.org/2000/svg" xmlns:xlink="http://www.w3.org/1999/xlink">
    <title>twint</title>
    <defs>
        <radialGradient cx="22.45%" cy="8.76%" fx="22.45%" fy="8.76%" r="113.287%" gradientTransform="translate(0.224500,0.087600),scale(1.000000,0.885896),translate(-0.224500,-0.087600)" id="radialGradient-1">
            <stop stop-color="#FFCC00" offset="0%"></stop>
            <stop stop-color="#FFC800" offset="9.157%"></stop>
            <stop stop-color="#FFBD00" offset="17.39%"></stop>
            <stop stop-color="#FFAB00" offset="25.28%"></stop>
            <stop stop-color="#FF9100" offset="32.95%"></stop>
            <stop stop-color="#FF7000" offset="40.46%"></stop>
            <stop stop-color="#FF4700" offset="47.86%"></stop>
            <stop stop-color="#FF1800" offset="55.03%"></stop>
            <stop stop-color="#FF0000" offset="58.22%"></stop>
            <stop stop-color="#FF0000" offset="100%"></stop>
        </radialGradient>
        <radialGradient cx="2.431%" cy="14.525%" fx="2.431%" fy="14.525%" r="139.175%" gradientTransform="translate(0.024310,0.145250),scale(1.000000,0.660452),translate(-0.024310,-0.145250)" id="radialGradient-2">
            <stop stop-color="#00B4E6" offset="0%"></stop>
            <stop stop-color="#00B0E3" offset="20.1%"></stop>
            <stop stop-color="#01A5DB" offset="38.98%"></stop>
            <stop stop-color="#0292CD" offset="57.37%"></stop>
            <stop stop-color="#0377BA" offset="75.46%"></stop>
            <stop stop-color="#0455A1" offset="93.16%"></stop>
            <stop stop-color="#054696" offset="100%"></stop>
        </radialGradient>
    </defs>
    <g id="Page-1" stroke="none" stroke-width="1" fill="none" fill-rule="evenodd">
        <g id="Artboard" transform="translate(-446.000000, -53.000000)">
            <g id="twint" transform="translate(446.000000, 53.000000)">
                <rect id="visa" fill="#000000" x="0" y="0" width="100" height="60" rx="4"></rect>
                <g id="Twint" transform="translate(10.000000, 17.000000)" fill-rule="nonzero">
                    <rect id="Rectangle" fill="#000000" x="0" y="0" width="80" height="26.2857143"></rect>
                    <g id="Group">
                        <path d="M22.8011429,19.1074286 C22.8011429,19.4445714 22.5622857,19.8525714 22.268,20.0211429 L11.9662857,25.98 C11.6714286,26.1485714 11.1942857,26.1485714 10.8994286,25.98 L0.597714286,20.0211429 C0.302857143,19.8525714 0.0645714286,19.4451429 0.0645714286,19.1074286 L0.0645714286,7.18971429 C0.0645714286,6.85257143 0.303428571,6.44457143 0.597714286,6.276 L10.8994286,0.317142857 C11.1942857,0.148571429 11.6714286,0.148571429 11.9662857,0.317142857 L22.268,6.276 C22.5628571,6.44457143 22.8011429,6.852 22.8011429,7.18971429 L22.8011429,19.1074286 L22.8011429,19.1074286 Z M79.9937143,8.04685714 L70.7725714,8.04685714 L70.7725714,10.2531429 L74.0845714,10.2531429 L74.0845714,19.6834286 L76.6948571,19.6834286 L76.6948571,10.2531429 L79.9931429,10.2531429 L79.9937143,8.04685714 Z M38.0994286,8.04685714 L28.8645714,8.04685714 L28.8645714,10.2531429 L32.1765714,10.2531429 L32.1765714,19.6834286 L34.7868571,19.6834286 L34.7868571,10.2531429 L38.0988571,10.2531429 L38.0994286,8.04685714 Z M64.7937143,7.68171429 C61.8885714,7.68171429 60.2742857,9.53657143 60.2742857,12.2211429 L60.2742857,19.684 L62.8565714,19.684 L62.8565714,12.1651429 C62.8565714,10.9988571 63.5445714,10.0994286 64.8217143,10.0994286 C66.0988571,10.0994286 66.7725714,11.1674286 66.7725714,12.1651429 L66.7725714,19.684 L69.3548571,19.684 L69.3548571,12.2211429 C69.3691429,9.53657143 67.6988571,7.68171429 64.7937143,7.68171429 Z M55.0537143,8.04685714 L55.0537143,19.6834286 L57.636,19.6834286 L57.636,8.04685714 L55.0537143,8.04685714 Z M46.296,12.6565714 L46.38,13.1765714 L48.808,19.6834286 L49.8605714,19.6834286 L53.1588571,8.04685714 L50.6182857,8.04685714 L49.0462857,14.1605714 L48.948,14.8211429 L48.8217143,14.1605714 L46.7165714,8.04685714 L45.8742857,8.04685714 L43.7691429,14.1605714 L43.6428571,14.8211429 L43.5588571,14.1605714 L41.9868571,8.04685714 L39.4325714,8.04685714 L42.7308571,19.6834286 L43.7834286,19.6834286 L46.2114286,13.1765714 L46.2954286,12.6565714" id="Shape1" fill="#FFFFFF"></path>
                        <path d="M16.808,13.1765714 L14.1131429,17.1257143 L12.7377143,15.0177143 L14.3234286,12.6428571 C14.6182857,12.2211429 15.2497143,11.0548571 14.52,9.46685714 C13.9302857,8.17371429 12.6531429,7.55542857 11.5302857,7.55542857 C10.4074286,7.55542857 9.18628571,8.13142857 8.52685714,9.46685714 C7.78285714,10.9988571 8.42857143,12.1931429 8.70914286,12.6011429 C8.70914286,12.6011429 9.59314286,13.8942857 10.3234286,14.9902857 L11.5165714,16.7188571 L13.3131429,19.4737143 C13.3274286,19.488 13.608,19.9234286 14.1131429,19.9234286 C14.5902857,19.9234286 14.8851429,19.488 14.9274286,19.4457143 L19.1377143,13.2057143 L16.808,13.2057143 L16.808,13.1777143 L16.808,13.1765714 Z M11.5165714,13.2748571 C11.5165714,13.2748571 10.8148571,12.2068571 10.3514286,11.4617143 C9.86,10.6605714 10.4074286,9.46628571 11.5165714,9.46628571 C12.6251429,9.46628571 13.1725714,10.6611429 12.6817143,11.4617143 C12.2325714,12.2068571 11.5165714,13.2748571 11.5165714,13.2748571 Z" id="Shape2" fill="url(#radialGradient-1)"></path>
                        <path d="M8.93428571,16.9994286 L6.29542857,13.2891429 C6.29542857,13.2891429 5.59371429,12.2211429 5.13028571,11.476 C4.63885714,10.6748571 5.18628571,9.48057143 6.29542857,9.48057143 C6.436,9.48057143 6.56228571,9.49485714 6.68857143,9.53657143 L7.61485714,7.836 C7.19371429,7.65314286 6.73085714,7.55485714 6.30971429,7.55485714 C5.18685714,7.55485714 3.96571429,8.13085714 3.30628571,9.46628571 C2.56228571,10.9982857 3.208,12.1925714 3.48857143,12.6005714 L8.10628571,19.4451429 C8.14857143,19.5011429 8.44285714,19.9371429 8.93428571,19.9371429 C9.42571429,19.9371429 9.70628571,19.5154286 9.74857143,19.4594286 L11.1382857,17.3371429 L9.94514286,15.5805714 L8.93485714,17 L8.93428571,16.9994286 Z" id="Path" fill="url(#radialGradient-2)"></path>
                    </g>
                </g>
            </g>
        </g>
    </g>
</svg>