<?xml version="1.0" encoding="UTF-8"?>
<svg width="100px" height="60px" viewBox="0 0 100 60" version="1.1" xmlns="http://www.w3.org/2000/svg" xmlns:xlink="http://www.w3.org/1999/xlink">
    <title>visa</title>
    <defs>
        <path d="M40.858234,17.7158687 C40.8132238,14.1671674 44.020795,12.1867173 46.4371336,11.0093444 C48.9198032,9.80117508 49.7536769,9.02652532 49.7442011,7.94627979 C49.7252494,6.29274607 47.763751,5.56310654 45.9278073,5.53467903 C42.7249741,5.48493088 40.8629719,6.39934924 39.3823723,7.09108542 L38.228689,1.69222673 C39.7140266,1.00759744 42.4643886,0.410619645 45.3166158,0.384561091 C52.0112953,0.384561091 56.3915014,3.68925958 56.415191,8.81331897 C56.4412496,15.3161128 47.4202518,15.6761946 47.4818448,18.5829079 C47.5031654,19.4641608 48.344146,20.4046378 50.1871965,20.6439027 C51.0992459,20.7647196 53.6174499,20.857109 56.472046,19.5423365 L57.5925639,24.7658922 C56.0574781,25.3249666 54.0841349,25.8603515 51.6275239,25.8603515 C45.3260916,25.8603515 40.8937684,22.5106428 40.858234,17.7158687 M68.3594848,25.4102492 C67.1371017,25.4102492 66.1066043,24.6971924 65.6470262,23.6027331 L56.0835367,0.768332529 L62.7734783,0.768332529 L64.1048335,4.44732662 L72.2801127,4.44732662 L73.0523935,0.768332529 L78.9487337,0.768332529 L73.8033537,25.4102492 L68.3594848,25.4102492 M69.2952238,18.753473 L71.2259258,9.50031722 L65.9384082,9.50031722 L69.2952238,18.753473 M32.7469167,25.4102492 L27.4736129,0.768332529 L33.8484829,0.768332529 L39.1194178,25.4102492 L32.7469167,25.4102492 M23.316089,25.4102492 L16.6806334,8.63801596 L13.9966023,22.8991521 C13.6815307,24.4910929 12.437827,25.4102492 11.0567236,25.4102492 L0.209258089,25.4102492 L0.057644681,24.6948234 C2.2844666,24.2115557 4.81451534,23.432168 6.34723214,22.5982943 C7.28534009,22.088968 7.55303252,21.6436036 7.86099725,20.4330653 L12.9447843,0.768332529 L19.6821051,0.768332529 L30.0107685,25.4102492 L23.316089,25.4102492" id="path-1"></path>
        <linearGradient x1="16.1481739%" y1="39.9345319%" x2="85.8318643%" y2="60.5490403%" id="linearGradient-3">
            <stop stop-color="#222357" offset="0%"></stop>
            <stop stop-color="#254AA5" offset="100%"></stop>
        </linearGradient>
    </defs>
    <g id="Page-1" stroke="none" stroke-width="1" fill="none" fill-rule="evenodd">
        <g id="Artboard" transform="translate(-581.000000, -53.000000)">
            <g id="visa" transform="translate(581.000000, 53.000000)">
                <rect id="reka" fill="#FFFFFF" x="0" y="0" width="100" height="60" rx="4"></rect>
                <g id="Visa_2014_logo_detail" transform="translate(10.000000, 17.000000)">
                    <g id="g10269-Clipped" transform="translate(39.600771, 13.177183) scale(-1, 1) rotate(-180.000000) translate(-39.600771, -13.177183) translate(0.100771, 0.177183)">
                        <mask id="mask-2" fill="white">
                            <use xlink:href="#path-1"></use>
                        </mask>
                        <g id="path10273"></g>
                        <g id="g10269" mask="url(#mask-2)">
                            <g transform="translate(-8.686185, -26.058554)" id="g10275">
                                <g transform="translate(0.482478, 0.707529)">
                                    <polyline id="path10283" fill="url(#linearGradient-3)" fill-rule="nonzero" points="0 48.168843 77.7310885 76.7953495 95.4145815 28.7773303 17.6842826 0.150823754"></polyline>
                                </g>
                            </g>
                        </g>
                    </g>
                </g>
            </g>
        </g>
    </g>
</svg>