<?xml version="1.0" encoding="UTF-8"?>
<svg width="256px" height="256px" viewBox="0 0 256 256" version="1.1" xmlns="http://www.w3.org/2000/svg" xmlns:xlink="http://www.w3.org/1999/xlink">
    <title>logo2_v2 copy</title>
    <g id="Page-1" stroke="none" stroke-width="1" fill="none" fill-rule="evenodd">
        <g id="Artboard" transform="translate(-1175.000000, -571.000000)">
            <g id="logo2_v2-copy" transform="translate(1175.000000, 571.000000)">
                <polygon id="Rectangle-Copy-2" fill="#212738" points="1.32294176e-12 -3.63797881e-12 256 -3.08109094e-12 256 256 1.32294176e-12 256"></polygon>
                <g id="Group-Copy-10" transform="translate(23.040000, 64.000000)">
                    <circle id="Oval-Copy-6" fill="#D16666" cx="167.68" cy="72.96" r="8.96"></circle>
                    <circle id="Oval-Copy-5" fill="#F3F8F2" cx="158.72" cy="58.88" r="15.36"></circle>
                    <circle id="Oval-Copy-4" fill="#3581B8" cx="144.64" cy="44.8" r="19.2"></circle>
                    <circle id="Oval-Copy-3" fill="#F3F8F2" cx="119.04" cy="34.56" r="26.88"></circle>
                    <circle id="Oval-Copy-2" fill="#D16666" cx="87.04" cy="33.28" r="33.28"></circle>
                    <circle id="Oval-Copy" fill="#F3F8F2" cx="53.76" cy="53.76" r="35.84"></circle>
                    <circle id="Oval" fill="#3581B8" cx="37.12" cy="90.88" r="37.12"></circle>
                    <path d="M25.42525,103.56375 L25.42525,92.38625 C25.42525,89.5954167 25.8006667,87.5908333 26.5515,86.3725 C27.3023333,85.1541667 28.5065,84.545 30.164,84.545 C31.3965,84.545 32.299625,84.9735417 32.873375,85.830625 C33.447125,86.6877083 33.734,87.9733333 33.734,89.6875 L33.734,89.6875 L33.734,103.56375 L40.21525,103.56375 L40.21525,91.6425 C40.21525,89.1775 40.608375,87.3783333 41.394625,86.245 C42.180875,85.1116667 43.3673333,84.545 44.954,84.545 C46.1865,84.545 47.089625,84.9735417 47.663375,85.830625 C48.237125,86.6877083 48.524,87.9733333 48.524,89.6875 L48.524,89.6875 L48.524,103.56375 L55.0265,103.56375 L55.0265,88.0725 C55.0265,85.0266667 54.335875,82.813125 52.954625,81.431875 C51.573375,80.050625 49.5369167,79.36 46.84525,79.36 C45.2869167,79.36 43.8879583,79.6645833 42.648375,80.27375 C41.4087917,80.8829167 40.47025,81.74 39.83275,82.845 L39.83275,82.845 L39.259,82.845 C37.9981667,80.5216667 35.5898333,79.36 32.034,79.36 C30.4756667,79.36 29.0944167,79.668125 27.89025,80.284375 C26.6860833,80.900625 25.76525,81.7541667 25.12775,82.845 L25.12775,82.845 L24.7665,82.845 L23.89525,79.80625 L18.944,79.80625 L18.944,103.56375 L25.42525,103.56375 Z" id="m" fill="#F3F8F2" fill-rule="nonzero"></path>
                    <path d="M90.185,103.726 C91.335,103.726 92.36,103.5135 93.26,103.0885 C94.16,102.6635 94.855,102.061 95.345,101.281 L95.345,101.281 L95.585,101.281 L96.2,103.426 L99.71,103.426 L99.71,86.656 L95.135,86.656 L95.135,94.546 C95.135,96.526 94.85,97.9435 94.28,98.7985 C93.71,99.6535 92.785,100.081 91.505,100.081 C90.565,100.081 89.88,99.7785 89.45,99.1735 C89.02,98.5685 88.805,97.661 88.805,96.451 L88.805,96.451 L88.805,86.656 L84.23,86.656 L84.23,97.591 C84.23,99.571 84.73,101.0885 85.73,102.1435 C86.73,103.1985 88.215,103.726 90.185,103.726 Z" id="u" fill="#F3F8F2" fill-rule="nonzero"></path>
                    <path d="M114.495,103.4338 L114.495,95.5438 C114.495,93.5638 114.78,92.1463 115.35,91.2913 C115.92,90.4363 116.845,90.0088 118.125,90.0088 C119.065,90.0088 119.75,90.3113 120.18,90.9163 C120.61,91.5213 120.825,92.4288 120.825,93.6388 L120.825,93.6388 L120.825,103.4338 L125.4,103.4338 L125.4,92.4988 C125.4,90.5088 124.895,88.9863 123.885,87.9313 C122.875,86.8763 121.395,86.3488 119.445,86.3488 C118.305,86.3488 117.2875,86.5563 116.3925,86.9713 C115.4975,87.3863 114.795,87.9988 114.285,88.8088 L114.285,88.8088 L114.03,88.8088 L113.415,86.6638 L109.92,86.6638 L109.92,103.4338 L114.495,103.4338 Z" id="n" fill="#F3F8F2" fill-rule="nonzero"></path>
                    <path d="M143.39,103.7168 C145.52,103.7168 147.105,102.8918 148.145,101.2418 L148.145,101.2418 L148.34,101.2418 L149.225,103.4168 L152.735,103.4168 L152.735,80.0768 L148.145,80.0768 L148.145,85.4468 C148.145,86.4268 148.26,87.5418 148.49,88.7918 L148.49,88.7918 L148.34,88.7918 C147.23,87.1518 145.62,86.3318 143.51,86.3318 C141.5,86.3318 139.9225,87.0993 138.7775,88.6343 C137.6325,90.1693 137.06,92.3118 137.06,95.0618 C137.06,97.7718 137.6225,99.8918 138.7475,101.4218 C139.8725,102.9518 141.42,103.7168 143.39,103.7168 Z M144.995,100.0718 C143.935,100.0718 143.12,99.6593 142.55,98.8343 C141.98,98.0093 141.695,96.7718 141.695,95.1218 C141.695,93.4718 141.9775,92.2143 142.5425,91.3493 C143.1075,90.4843 143.9,90.0518 144.92,90.0518 C146.17,90.0518 147.0725,90.4418 147.6275,91.2218 C148.1825,92.0018 148.46,93.2918 148.46,95.0918 L148.46,95.0918 L148.46,95.5868 C148.41,97.2168 148.1125,98.3718 147.5675,99.0518 C147.0225,99.7318 146.165,100.0718 144.995,100.0718 Z" id="d" fill="#F3F8F2" fill-rule="nonzero"></path>
                    <polygon id="i" fill="#F3F8F2" fill-rule="nonzero" points="170.815 103.426 170.815 86.656 166.24 86.656 166.24 103.426"></polygon>
                    <path d="M185.68,103.7126 C186.99,103.7126 188.0525,103.5251 188.8675,103.1501 C189.6825,102.7751 190.475,102.1026 191.245,101.1326 L191.245,101.1326 L191.365,101.1326 L192.25,103.4126 L195.445,103.4126 L195.445,92.2376 C195.445,90.2376 194.845,88.7476 193.645,87.7676 C192.445,86.7876 190.72,86.2976 188.47,86.2976 C186.12,86.2976 183.98,86.8026 182.05,87.8126 L182.05,87.8126 L183.565,90.9026 C185.375,90.0926 186.95,89.6876 188.29,89.6876 C190.03,89.6876 190.9,90.5376 190.9,92.2376 L190.9,92.2376 L190.9,92.9726 L187.99,93.0626 C185.48,93.1526 183.6025,93.6201 182.3575,94.4651 C181.1125,95.3101 180.49,96.6226 180.49,98.4026 C180.49,100.1026 180.9525,101.4126 181.8775,102.3326 C182.8025,103.2526 184.07,103.7126 185.68,103.7126 Z M187.405,100.3676 C185.925,100.3676 185.185,99.7226 185.185,98.4326 C185.185,97.5326 185.51,96.8626 186.16,96.4226 C186.81,95.9826 187.8,95.7426 189.13,95.7026 L189.13,95.7026 L190.9,95.6426 L190.9,97.0226 C190.9,98.0326 190.5825,98.8426 189.9475,99.4526 C189.3125,100.0626 188.465,100.3676 187.405,100.3676 Z" id="a" fill="#F3F8F2" fill-rule="nonzero"></path>
                    <polygon id="l" fill="#F3F8F2" fill-rule="nonzero" points="211.775 103.4168 211.775 80.0768 207.2 80.0768 207.2 103.4168"></polygon>
                </g>
            </g>
        </g>
    </g>
</svg>